<svg xmlns="http://www.w3.org/2000/svg" width="180" height="50" viewBox="0 0 180 50">
  <defs>
    <linearGradient id="lg" x1="0%" y1="0%" x2="100%" y2="0%">
      <stop offset="0%" stop-color="#1A568E"/>
      <stop offset="100%" stop-color="#2E7DB8"/>
    </linearGradient>
  </defs>
  <g transform="translate(5, 8)">
    <path d="M20 2 C10 2 5 10 5 18 C5 24 8 30 12 32 L15 34 C16 35 16 36 15 37 L12 40 C10 42 10 44 12 44 L18 44 C19 44 20 43 20 42 L20 38 C20 36 21 35 22 35 L23 35 C24 35 25 36 25 38 L25 42 C25 43 26 44 27 44 L33 44 C35 44 35 42 33 40 L30 37 C29 36 29 35 30 34 L33 32 C37 30 40 24 40 18 C40 10 35 2 25 2 Z" fill="url(#lg)" stroke="#1A3A5C" stroke-width="0.5"/>
    <line x1="15" y1="12" x2="15" y2="28" stroke="#1A3A5C" stroke-width="1.5" opacity="0.4"/>
    <line x1="20" y1="10" x2="20" y2="30" stroke="#1A3A5C" stroke-width="1.5" opacity="0.4"/>
    <line x1="25" y1="10" x2="25" y2="30" stroke="#1A3A5C" stroke-width="1.5" opacity="0.4"/>
    <line x1="30" y1="12" x2="30" y2="28" stroke="#1A3A5C" stroke-width="1.5" opacity="0.4"/>
  </g>
  <text x="52" y="30" font-family="'PingFang SC','Microsoft YaHei',sans-serif" font-size="20" font-weight="700" fill="#1A3A5C">高德口腔</text>
</svg>